<?xml version="1.0" standalone="no"?>
<!DOCTYPE svg PUBLIC "-//W3C//DTD SVG 20010904//EN"
 "http://www.w3.org/TR/2001/REC-SVG-20010904/DTD/svg10.dtd">
<svg version="1.0" xmlns="http://www.w3.org/2000/svg"
 width="677.000000pt" height="570.000000pt" viewBox="0 0 677.000000 570.000000"
 preserveAspectRatio="xMidYMid meet">
<metadata>
Created by potrace 1.15, written by Peter Selinger 2001-2017
</metadata>
<g transform="translate(0.000000,570.000000) scale(0.100000,-0.100000)"
fill="#000000" stroke="none">
<path d="M0 2850 l0 -2850 3385 0 3385 0 0 2850 0 2850 -3385 0 -3385 0 0
-2850z m3572 1744 c154 -192 235 -300 231 -310 -4 -12 -459 -383 -574 -469
-69 -51 -618 -496 -624 -505 -3 -5 11 -32 32 -59 113 -146 187 -231 200 -231
8 0 92 62 186 137 375 299 478 380 552 438 42 33 82 65 88 70 108 92 292 235
303 235 7 0 19 -9 26 -19 7 -10 30 -39 50 -63 177 -210 408 -506 406 -519 -3
-15 -125 -115 -826 -673 -150 -119 -275 -223 -278 -230 -6 -14 221 -306 238
-306 10 0 148 107 559 435 359 286 493 392 514 409 11 8 49 38 84 66 35 27 68
50 72 50 4 0 45 -46 90 -102 45 -57 94 -117 108 -134 14 -17 33 -40 41 -50 52
-66 104 -130 168 -207 39 -48 72 -96 72 -106 0 -17 -215 -194 -664 -546 -87
-69 -360 -285 -566 -449 -58 -45 -184 -145 -280 -221 -96 -76 -218 -173 -270
-214 -168 -134 -249 -193 -258 -190 -5 2 -35 36 -66 74 -128 158 -377 465
-460 569 -154 192 -407 505 -542 670 -71 87 -138 170 -148 185 -11 14 -57 71
-101 126 -45 55 -121 150 -170 210 -49 61 -116 144 -150 185 -230 283 -315
392 -315 409 0 11 19 34 44 53 53 40 1080 866 1261 1013 72 58 198 159 280
225 83 66 211 169 285 229 74 60 142 110 150 110 8 0 122 -133 252 -295z"/>
</g>
</svg>
